<svg xmlns="http://www.w3.org/2000/svg" width="72.192" height="72.192" viewBox="0 0 72.192 72.192">
  <g id="_008-web_browser" data-name="008-web browser" transform="translate(-19.654 -23.15)">
    <path id="Trazado_2153" data-name="Trazado 2153" d="M55.75,94.742a35.5,35.5,0,1,1,35.5-35.493,35.5,35.5,0,0,1-35.5,35.493Zm0-66.753A31.257,31.257,0,1,0,87.007,59.249,31.257,31.257,0,0,0,55.75,27.989Z" transform="translate(0 0)" fill="#f1ad00" stroke="#000" stroke-width="1.2"/>
    <path id="Trazado_2154" data-name="Trazado 2154" d="M38.12,34.561A2.12,2.12,0,0,1,36,32.441V30.678a2.12,2.12,0,1,1,4.239,0v1.764A2.12,2.12,0,0,1,38.12,34.561Z" transform="translate(17.63 5.383)" fill="#f1ad00" stroke="#000" stroke-width="1.2"/>
    <path id="Trazado_2155" data-name="Trazado 2155" d="M31.632,37.249a2.12,2.12,0,0,1-1.5-.621l-1.244-1.248a2.12,2.12,0,1,1,3-3l1.246,1.249a2.12,2.12,0,0,1-1.5,3.618Z" transform="translate(8.971 8.97)" fill="#f1ad00" stroke="#000" stroke-width="1.2"/>
    <path id="Trazado_2156" data-name="Trazado 2156" d="M28.945,43.739H27.182a2.12,2.12,0,1,1,0-4.239h1.764a2.12,2.12,0,1,1,0,4.239Z" transform="translate(5.383 17.635)" fill="#f1ad00" stroke="#000" stroke-width="1.2"/>
    <path id="Trazado_2157" data-name="Trazado 2157" d="M30.385,52.128a2.12,2.12,0,0,1-1.5-3.618l1.244-1.246a2.12,2.12,0,0,1,3,3l-1.246,1.248A2.12,2.12,0,0,1,30.385,52.128Z" transform="translate(8.971 25.631)" fill="#f1ad00" stroke="#000" stroke-width="1.2"/>
    <path id="Trazado_2158" data-name="Trazado 2158" d="M38.12,55.607A2.12,2.12,0,0,1,36,53.487V51.72a2.12,2.12,0,1,1,4.239,0v1.761a2.12,2.12,0,0,1-2.12,2.126Z" transform="translate(17.63 28.943)" fill="#f1ad00" stroke="#000" stroke-width="1.2"/>
    <path id="Trazado_2159" data-name="Trazado 2159" d="M46.512,52.129a2.119,2.119,0,0,1-1.5-.621l-1.247-1.247a2.12,2.12,0,1,1,3-3l1.244,1.246a2.12,2.12,0,0,1-1.5,3.618Z" transform="translate(25.632 25.632)" fill="#f1ad00" stroke="#000" stroke-width="1.2"/>
    <path id="Trazado_2160" data-name="Trazado 2160" d="M49.989,43.739H48.226a2.12,2.12,0,1,1,0-4.239h1.764a2.12,2.12,0,0,1,0,4.239Z" transform="translate(28.946 17.635)" fill="#f1ad00" stroke="#000" stroke-width="1.2"/>
    <path id="Trazado_2161" data-name="Trazado 2161" d="M45.265,37.248a2.12,2.12,0,0,1-1.5-3.618l1.246-1.246a2.12,2.12,0,1,1,3,3l-1.244,1.246A2.12,2.12,0,0,1,45.265,37.248Z" transform="translate(25.632 8.971)" fill="#f1ad00" stroke="#000" stroke-width="1.2"/>
    <path id="Trazado_2162" data-name="Trazado 2162" d="M35.624,55.13a2.12,2.12,0,0,1-1.5-3.618l4.663-4.663V35.381a2.12,2.12,0,0,1,4.239,0V47.721a2.12,2.12,0,0,1-.621,1.5l-5.289,5.286a2.12,2.12,0,0,1-1.494.621Z" transform="translate(14.837 10.649)" fill="#f1ad00" stroke="#000" stroke-width="1.2"/>
  </g>
</svg>
