<svg xmlns="http://www.w3.org/2000/svg" width="70" height="70" viewBox="0 0 70 70">
  <g id="navegador-web" transform="translate(-2 -2)">
    <path id="Trazado_2199" data-name="Trazado 2199" d="M71,42.53a1,1,0,0,1-1-1V38.56a1,1,0,0,1,2,0v2.97A1,1,0,0,1,71,42.53Z" fill="#f1ad00"/>
    <path id="Trazado_2200" data-name="Trazado 2200" d="M69,72H5a3,3,0,0,1-3-3V5A3,3,0,0,1,5,2H69a3,3,0,0,1,3,3V31.56a1,1,0,0,1-2,0V5a1,1,0,0,0-1-1H5A1,1,0,0,0,4,5V69a1,1,0,0,0,1,1H69a1,1,0,0,0,1-1V58.44a1,1,0,0,1,2,0V69A3,3,0,0,1,69,72Z" fill="#f1ad00"/>
    <path id="Trazado_2201" data-name="Trazado 2201" d="M71,52.44a1,1,0,0,1-1-1V48.53a1,1,0,1,1,2,0v2.91A1,1,0,0,1,71,52.44Z" fill="#f1ad00"/>
    <path id="Trazado_2202" data-name="Trazado 2202" d="M71,20.992H3a1,1,0,0,1,0-2H71a1,1,0,0,1,0,2Z" fill="#f1ad00"/>
    <path id="Trazado_2203" data-name="Trazado 2203" d="M61.866,15.449a3.82,3.82,0,1,1,3.82-3.82A3.82,3.82,0,0,1,61.866,15.449Zm0-5.64a1.82,1.82,0,1,0,1.82,1.82,1.82,1.82,0,0,0-1.82-1.82Z" fill="#f1ad00"/>
    <path id="Trazado_2204" data-name="Trazado 2204" d="M51.719,15.449a3.82,3.82,0,1,1,3.819-3.82,3.82,3.82,0,0,1-3.819,3.82Zm0-5.64a1.82,1.82,0,1,0,1.819,1.82A1.82,1.82,0,0,0,51.719,9.809Z" fill="#f1ad00"/>
    <path id="Trazado_2205" data-name="Trazado 2205" d="M41.571,15.449a3.82,3.82,0,1,1,3.821-3.82,3.82,3.82,0,0,1-3.821,3.82Zm0-5.64a1.82,1.82,0,1,0,1.821,1.82,1.82,1.82,0,0,0-1.821-1.82Z" fill="#f1ad00"/>
    <path id="Trazado_2206" data-name="Trazado 2206" d="M33.314,12.629h-24a1,1,0,0,1,0-2h24a1,1,0,0,1,0,2Z" fill="#f1ad00"/>
    <path id="Trazado_2207" data-name="Trazado 2207" d="M43.246,41.082a1,1,0,0,1-.707-1.707L46.414,35.5l-3.875-3.875a1,1,0,1,1,1.414-1.414l4.582,4.582a1,1,0,0,1,0,1.414l-4.582,4.582A1,1,0,0,1,43.246,41.082Z" fill="#f1ad00"/>
    <path id="Trazado_2208" data-name="Trazado 2208" d="M30.754,41.082a1,1,0,0,1-.707-.293l-4.582-4.582a1,1,0,0,1,0-1.414l4.582-4.582a1,1,0,1,1,1.414,1.414L27.586,35.5l3.875,3.875a1,1,0,0,1-.707,1.707Z" fill="#f1ad00"/>
    <path id="Trazado_2209" data-name="Trazado 2209" d="M34.784,46a1,1,0,0,1-.974-1.227l4.433-19a1,1,0,1,1,1.947.454l-4.433,19a1,1,0,0,1-.973.773Z" fill="#f1ad00"/>
    <path id="Trazado_2210" data-name="Trazado 2210" d="M21.3,54H12a1,1,0,0,1,0-2h9.3a1,1,0,0,1,0,2Z" fill="#f1ad00"/>
    <path id="Trazado_2211" data-name="Trazado 2211" d="M62,54H47.893a1,1,0,0,1,0-2H62a1,1,0,0,1,0,2Z" fill="#f1ad00"/>
    <path id="Trazado_2212" data-name="Trazado 2212" d="M38.923,54H31.23a1,1,0,1,1,0-2h7.693a1,1,0,0,1,0,2Z" fill="#f1ad00"/>
    <path id="Trazado_2213" data-name="Trazado 2213" d="M37,63H12a1,1,0,0,1,0-2H37a1,1,0,0,1,0,2Z" fill="#f1ad00"/>
    <path id="Trazado_2214" data-name="Trazado 2214" d="M62,63H45.654a1,1,0,0,1,0-2H62a1,1,0,0,1,0,2Z" fill="#f1ad00"/>
  </g>
</svg>
