<svg xmlns="http://www.w3.org/2000/svg" width="41.07" height="69.191" viewBox="0 0 41.07 69.191">
  <g id="puntero-del-mapa" transform="translate(-16.06 -2.001)">
    <path id="Trazado_2300" data-name="Trazado 2300" d="M51.377,40.077a.988.988,0,0,1-.883-1.43c.43-.861.85-1.721,1.242-2.57a.988.988,0,0,1,1.8.826c-.4.87-.829,1.75-1.268,2.628a.988.988,0,0,1-.886.546Z" transform="translate(-0.396 -0.387)" fill="#f1ad00"/>
    <path id="Trazado_2301" data-name="Trazado 2301" d="M36.758,63.838a.988.988,0,0,1-.819-.436c-.029-.043-2.872-4.268-6.352-10.024C23.414,43.174,16.06,29.569,16.06,22.7a20.7,20.7,0,0,1,41.054-3.725.989.989,0,0,1-1.945.354A18.719,18.719,0,0,0,18.037,22.7c0,5.006,4.7,15.537,13.245,29.654,2.342,3.881,4.389,7.055,5.476,8.707,1.087-1.653,3.135-4.829,5.48-8.705,1.68-2.768,3.244-5.463,4.656-8.021a.988.988,0,1,1,1.731.955c-1.425,2.582-3,5.3-4.7,8.091-3.48,5.755-6.326,9.983-6.352,10.023A.988.988,0,0,1,36.758,63.838Z" fill="#f1ad00"/>
    <path id="Trazado_2302" data-name="Trazado 2302" d="M55.368,30.959a.988.988,0,0,1-.988-.988v-.01a.973.973,0,0,1,.057-.332c.331-.928.627-1.861.878-2.777a.988.988,0,1,1,1.906.524c-.261.953-.569,1.924-.912,2.889A.988.988,0,0,1,55.368,30.959Z" transform="translate(-0.443 -0.279)" fill="#f1ad00"/>
    <path id="Trazado_2303" data-name="Trazado 2303" d="M36.839,36.556A13.757,13.757,0,1,1,50.6,22.8,13.757,13.757,0,0,1,36.839,36.556Zm0-25.537A11.78,11.78,0,1,0,48.619,22.8a11.781,11.781,0,0,0-11.779-11.78Z" transform="translate(-0.081 -0.081)" fill="#f1ad00"/>
    <path id="Trazado_2304" data-name="Trazado 2304" d="M36.768,71.774c-11.155,0-19.893-4.355-19.893-9.915,0-4.337,5.263-8.022,13.406-9.39a.988.988,0,1,1,.327,1.949c-6.919,1.16-11.757,4.219-11.757,7.438,0,4.306,8.2,7.941,17.916,7.941s17.916-3.636,17.916-7.938c0-3.219-4.835-6.278-11.757-7.438a.988.988,0,1,1,.327-1.949c8.144,1.365,13.406,5.05,13.406,9.39C56.66,67.419,47.922,71.774,36.768,71.774Z" transform="translate(-0.009 -0.583)" fill="#f1ad00"/>
  </g>
</svg>
