<svg xmlns="http://www.w3.org/2000/svg" width="70" height="70" viewBox="0 0 70 70">
  <g id="_018-web_browser" data-name="018-web browser" transform="translate(-2 -2)">
    <path id="Trazado_2130" data-name="Trazado 2130" d="M12.954,11.629H11a1,1,0,0,1,0-2h1.954a1,1,0,1,1,0,2Z" fill="#f1ad00"/>
    <path id="Trazado_2131" data-name="Trazado 2131" d="M71,48.57a1,1,0,0,1-1-1V44.6a1,1,0,0,1,2,0v2.97A1,1,0,0,1,71,48.57Z" fill="#f1ad00"/>
    <path id="Trazado_2132" data-name="Trazado 2132" d="M69,72H5a3,3,0,0,1-3-3V5A3,3,0,0,1,5,2H69a3,3,0,0,1,3,3V27.69a1,1,0,0,1-2,0V5a1,1,0,0,0-1-1H5A1,1,0,0,0,4,5V69a1,1,0,0,0,1,1H69a1,1,0,0,0,1-1V54.57a1,1,0,0,1,2,0V69A3,3,0,0,1,69,72Z" fill="#f1ad00"/>
    <path id="Trazado_2133" data-name="Trazado 2133" d="M71,38.6a1,1,0,0,1-1-1V34.69a1,1,0,0,1,2,0V37.6A1,1,0,0,1,71,38.6Z" fill="#f1ad00"/>
    <path id="Trazado_2134" data-name="Trazado 2134" d="M71,18.992H3a1,1,0,0,1,0-2H71a1,1,0,0,1,0,2Z" fill="#f1ad00"/>
    <path id="Trazado_2135" data-name="Trazado 2135" d="M21,11.629H19.046a1,1,0,0,1,0-2H21a1,1,0,1,1,0,2Z" fill="#f1ad00"/>
    <path id="Trazado_2136" data-name="Trazado 2136" d="M29.046,11.629H27.092a1,1,0,0,1,0-2h1.954a1,1,0,0,1,0,2Z" fill="#f1ad00"/>
    <path id="Trazado_2137" data-name="Trazado 2137" d="M45.429,38.5H28.571a1.9,1.9,0,0,1-1.892-1.893V25.893A1.9,1.9,0,0,1,28.571,24H45.429a1.9,1.9,0,0,1,1.892,1.893V36.607A1.9,1.9,0,0,1,45.429,38.5Zm-16.75-2H45.321V26H28.679Z" fill="#f1ad00"/>
    <path id="Trazado_2138" data-name="Trazado 2138" d="M41,30.009H33a1,1,0,0,1,0-2h8a1,1,0,0,1,0,2Z" fill="#f1ad00"/>
    <path id="Trazado_2139" data-name="Trazado 2139" d="M41,34.156H33a1,1,0,0,1,0-2h8a1,1,0,0,1,0,2Z" fill="#f1ad00"/>
    <path id="Trazado_2140" data-name="Trazado 2140" d="M60.874,65.6H51.126a1.759,1.759,0,0,1-1.757-1.758V54.757A1.759,1.759,0,0,1,51.126,53h9.748a1.759,1.759,0,0,1,1.757,1.757V63.84a1.759,1.759,0,0,1-1.757,1.76Zm-9.505-2h9.262V55H51.369Z" fill="#f1ad00"/>
    <path id="Trazado_2141" data-name="Trazado 2141" d="M41.874,65.6H32.126a1.759,1.759,0,0,1-1.757-1.758V54.757A1.759,1.759,0,0,1,32.126,53h9.748a1.759,1.759,0,0,1,1.757,1.757V63.84A1.759,1.759,0,0,1,41.874,65.6Zm-9.505-2h9.262V55H32.369Z" fill="#f1ad00"/>
    <path id="Trazado_2142" data-name="Trazado 2142" d="M22.874,65.6H13.126a1.759,1.759,0,0,1-1.757-1.758V54.757A1.759,1.759,0,0,1,13.126,53h9.748a1.759,1.759,0,0,1,1.757,1.757V63.84A1.759,1.759,0,0,1,22.874,65.6Zm-9.5-2h9.262V55H13.369Z" fill="#f1ad00"/>
    <path id="Trazado_2143" data-name="Trazado 2143" d="M37,55a1,1,0,0,1-1-1V37.5a1,1,0,0,1,2,0V54A1,1,0,0,1,37,55Z" fill="#f1ad00"/>
    <path id="Trazado_2144" data-name="Trazado 2144" d="M56,55a1,1,0,0,1-1-1V47.75a1,1,0,0,0-1-1H20a1,1,0,0,0-1,1V54a1,1,0,0,1-2,0V47.75a3,3,0,0,1,3-3H54a3,3,0,0,1,3,3V54A1,1,0,0,1,56,55Z" fill="#f1ad00"/>
    <path id="Trazado_2145" data-name="Trazado 2145" d="M63.5,11.629H35a1,1,0,1,1,0-2H63.5a1,1,0,0,1,0,2Z" fill="#f1ad00"/>
  </g>
</svg>
