<svg id="Grupo_865" data-name="Grupo 865" xmlns="http://www.w3.org/2000/svg" width="45.258" height="45.258" viewBox="0 0 45.258 45.258">
  <path id="Trazado_2266" data-name="Trazado 2266" d="M17.542,29.342c-.189.031-.378.059-.568.086C17.164,29.4,17.353,29.373,17.542,29.342Z" transform="translate(8.736 15.621)" fill="#fff"/>
  <path id="Trazado_2267" data-name="Trazado 2267" d="M17.725,29.293l-.27.047Z" transform="translate(9.005 15.593)" fill="#fff"/>
  <path id="Trazado_2268" data-name="Trazado 2268" d="M16.889,29.437q-.33.037-.665.066Q16.559,29.474,16.889,29.437Z" transform="translate(8.315 15.674)" fill="#fff"/>
  <path id="Trazado_2269" data-name="Trazado 2269" d="M17.044,29.4c-.106.014-.212.027-.32.039C16.832,29.43,16.938,29.417,17.044,29.4Z" transform="translate(8.595 15.655)" fill="#fff"/>
  <path id="Trazado_2270" data-name="Trazado 2270" d="M18.109,29.214c-.08.017-.159.034-.239.05C17.95,29.248,18.029,29.231,18.109,29.214Z" transform="translate(9.238 15.549)" fill="#fff"/>
  <path id="Trazado_2271" data-name="Trazado 2271" d="M19.071,28.971c-.064.019-.128.036-.192.053C18.943,29.007,19.007,28.99,19.071,28.971Z" transform="translate(9.804 15.413)" fill="#fff"/>
  <path id="Trazado_2272" data-name="Trazado 2272" d="M18.781,29.052c-.069.019-.139.037-.209.055C18.642,29.089,18.712,29.071,18.781,29.052Z" transform="translate(9.631 15.458)" fill="#fff"/>
  <path id="Trazado_2273" data-name="Trazado 2273" d="M18.4,29.149l-.223.05Z" transform="translate(9.409 15.513)" fill="#fff"/>
  <path id="Trazado_2274" data-name="Trazado 2274" d="M16.347,29.479c-.119.011-.237.02-.357.028C16.11,29.5,16.229,29.49,16.347,29.479Z" transform="translate(8.184 15.698)" fill="#fff"/>
  <path id="Trazado_2275" data-name="Trazado 2275" d="M45.758,23.16A22.629,22.629,0,1,0,23.129,45.789c.133,0,.265,0,.4,0V28.168H18.666V22.5h4.861V18.333c0-4.836,2.951-7.468,7.265-7.468a39.991,39.991,0,0,1,4.359.223v5.053H32.176c-2.346,0-2.8,1.116-2.8,2.751V22.5h5.612l-.732,5.667h-4.88V44.915A22.642,22.642,0,0,0,45.758,23.16Z" transform="translate(-0.5 -0.531)" fill="#fff"/>
  <path id="Trazado_2276" data-name="Trazado 2276" d="M16.213,29.5c-.236.014-.471.027-.709.034C15.741,29.526,15.977,29.513,16.213,29.5Z" transform="translate(7.912 15.709)" fill="#fff"/>
  <path id="Trazado_2277" data-name="Trazado 2277" d="M15.631,29.522l-.376.009Z" transform="translate(7.772 15.722)" fill="#fff"/>
</svg>
