<svg xmlns="http://www.w3.org/2000/svg" width="63.6" height="45.148" viewBox="0 0 63.6 45.148">
  <g id="Grupo_857" data-name="Grupo 857" transform="translate(-1116.778 -1830.595)">
    <path id="Trazado_2171" data-name="Trazado 2171" d="M74.812,73.148H16.764A2.764,2.764,0,0,1,14,70.384V30.764A2.764,2.764,0,0,1,16.764,28H74.812a2.764,2.764,0,0,1,2.764,2.764v39.62A2.764,2.764,0,0,1,74.812,73.148ZM16.764,30.764v39.62H74.812V30.764Z" transform="translate(1102.802 1802.595)" fill="#f1ad00"/>
    <path id="Trazado_2172" data-name="Trazado 2172" d="M29.882,62.113a1.382,1.382,0,0,1-1.031-2.3L46.127,40.461A1.382,1.382,0,0,1,48,40.285l23.5,17.967a1.382,1.382,0,0,1-1.678,2.195L47.336,43.257,30.913,61.652a1.382,1.382,0,0,1-1.031.462Z" transform="translate(1108.342 1807.18)" fill="#f1ad00"/>
    <path id="Trazado_2173" data-name="Trazado 2173" d="M39.921,56.318a1.382,1.382,0,0,1-.941-.369L27.468,45.256,16.315,55.326a1.382,1.382,0,1,1-1.852-2.051L26.556,42.357a1.382,1.382,0,0,1,1.867.012L40.862,53.923a1.382,1.382,0,0,1-.941,2.4Z" transform="translate(1102.795 1807.944)" fill="#f1ad00"/>
    <path id="Trazado_2174" data-name="Trazado 2174" d="M32.576,44.152a5.7,5.7,0,1,1,5.7-5.7A5.7,5.7,0,0,1,32.576,44.152Zm0-8.638a2.937,2.937,0,1,0,2.937,2.937A2.937,2.937,0,0,0,32.576,35.514Z" transform="translate(1107.721 1804.41)" fill="#f1ad00"/>
  </g>
</svg>
