<svg id="Grupo_864" data-name="Grupo 864" xmlns="http://www.w3.org/2000/svg" width="45.258" height="45.258" viewBox="0 0 45.258 45.258">
  <path id="Trazado_2263" data-name="Trazado 2263" d="M-43.614,16.587a4.33,4.33,0,0,1-4.331,4.331,4.33,4.33,0,0,1-4.331-4.331,4.33,4.33,0,0,1,4.331-4.331A4.33,4.33,0,0,1-43.614,16.587Z" transform="translate(70.573 6.042)" fill="#fff"/>
  <path id="Trazado_2264" data-name="Trazado 2264" d="M-35.543,11.194A4.059,4.059,0,0,0-36.516,9.7a4.052,4.052,0,0,0-1.5-.972,7.188,7.188,0,0,0-2.411-.446c-1.372-.062-1.782-.076-5.251-.076s-3.881.014-5.251.076a7.188,7.188,0,0,0-2.411.446,4.052,4.052,0,0,0-1.5.972,4.059,4.059,0,0,0-.972,1.494,7.211,7.211,0,0,0-.446,2.414c-.062,1.37-.076,1.781-.076,5.25s.014,3.881.076,5.251a7.2,7.2,0,0,0,.446,2.413,4.039,4.039,0,0,0,.972,1.494,4.039,4.039,0,0,0,1.494.972,7.2,7.2,0,0,0,2.413.448c1.37.062,1.781.075,5.251.075s3.881-.012,5.25-.075a7.18,7.18,0,0,0,2.413-.448,4.3,4.3,0,0,0,2.467-2.466,7.2,7.2,0,0,0,.446-2.413c.062-1.37.076-1.782.076-5.251s-.014-3.88-.076-5.25A7.211,7.211,0,0,0-35.543,11.194Zm-10.13,14.336a6.673,6.673,0,0,1-6.673-6.672,6.674,6.674,0,0,1,6.673-6.673A6.673,6.673,0,0,1-39,18.858,6.672,6.672,0,0,1-45.673,25.529Zm6.937-12.048A1.561,1.561,0,0,1-40.3,11.921a1.561,1.561,0,0,1,1.561-1.559,1.561,1.561,0,0,1,1.559,1.559A1.562,1.562,0,0,1-38.736,13.481Z" transform="translate(68.302 3.771)" fill="#fff"/>
  <path id="Trazado_2265" data-name="Trazado 2265" d="M-41.371.531A22.631,22.631,0,0,0-64,23.16,22.631,22.631,0,0,0-41.371,45.789,22.631,22.631,0,0,0-18.742,23.16,22.631,22.631,0,0,0-41.371.531Zm12.916,27.987a9.517,9.517,0,0,1-.6,3.154,6.651,6.651,0,0,1-3.8,3.8,9.558,9.558,0,0,1-3.154.6c-1.386.062-1.829.078-5.358.078s-3.972-.016-5.358-.078a9.557,9.557,0,0,1-3.154-.6,6.372,6.372,0,0,1-2.3-1.5,6.369,6.369,0,0,1-1.5-2.3,9.558,9.558,0,0,1-.6-3.154c-.064-1.386-.078-1.829-.078-5.358s.014-3.972.078-5.358a9.518,9.518,0,0,1,.6-3.154,6.388,6.388,0,0,1,1.5-2.3,6.389,6.389,0,0,1,2.3-1.5,9.557,9.557,0,0,1,3.154-.6c1.386-.062,1.829-.078,5.358-.078s3.972.016,5.358.078a9.557,9.557,0,0,1,3.154.6,6.389,6.389,0,0,1,2.3,1.5,6.389,6.389,0,0,1,1.5,2.3,9.517,9.517,0,0,1,.6,3.154c.064,1.386.078,1.829.078,5.358S-28.391,27.132-28.455,28.518Z" transform="translate(64 -0.531)" fill="#fff"/>
</svg>
