<svg xmlns="http://www.w3.org/2000/svg" width="190" height="190" viewBox="0 0 190 190">
  <g id="Grupo_896" data-name="Grupo 896" transform="translate(-1461 -3429)">
    <g id="Elipse_13" data-name="Elipse 13" transform="translate(1461 3429)" stroke="#f1ad00" stroke-width="1">
      <circle cx="95" cy="95" r="95" stroke="none"/>
      <circle cx="95" cy="95" r="94.5" fill="none"/>
    </g>
    <g id="diseno" transform="translate(1508 3477)">
      <path id="Trazado_2223" data-name="Trazado 2223" d="M37,6H81.144V8.6H37Z" transform="translate(10.969)" fill="#f1ad00"/>
      <path id="Trazado_2224" data-name="Trazado 2224" d="M37,16H81.144v2.6H37Z" transform="translate(10.969 2.984)" fill="#f1ad00"/>
      <path id="Trazado_2225" data-name="Trazado 2225" d="M37,26H81.144v2.6H37Z" transform="translate(10.969 6.218)" fill="#f1ad00"/>
      <path id="Trazado_2226" data-name="Trazado 2226" d="M3,36H92.113v2.6H3Z" transform="translate(0 9.327)" fill="#f1ad00"/>
      <path id="Trazado_2227" data-name="Trazado 2227" d="M3,46H92.113v2.6H3Z" transform="translate(0 12.436)" fill="#f1ad00"/>
      <path id="Trazado_2228" data-name="Trazado 2228" d="M3,56H92.113v2.6H3Z" transform="translate(0 15.67)" fill="#f1ad00"/>
      <path id="Trazado_2229" data-name="Trazado 2229" d="M3,66H92.113v2.6H3Z" transform="translate(0 18.653)" fill="#f1ad00"/>
      <path id="Trazado_2230" data-name="Trazado 2230" d="M32.459,33.8l-10.5-23.335L11.456,33.8,9.088,32.733,20.773,6.766a1.3,1.3,0,0,1,2.368,0L34.827,32.733Z" transform="translate(1.816 0)" fill="#f1ad00"/>
      <path id="Trazado_2231" data-name="Trazado 2231" d="M14,18H26.821v2.6H14Z" transform="translate(3.438 3.731)" fill="#f1ad00"/>
    </g>
  </g>
</svg>
