<svg xmlns="http://www.w3.org/2000/svg" width="190" height="190" viewBox="0 0 190 190">
  <g id="Grupo_895" data-name="Grupo 895" transform="translate(-288 -3433)">
    <g id="Elipse_11" data-name="Elipse 11" transform="translate(288 3433)" stroke="#f1ad00" stroke-width="1">
      <circle cx="95" cy="95" r="95" stroke="none"/>
      <circle cx="95" cy="95" r="94.5" fill="none"/>
    </g>
    <g id="Icons" transform="translate(332.781 3476.796)">
      <path id="Trazado_2232" data-name="Trazado 2232" d="M35.836,70.475a34.633,34.633,0,1,1,24.5-10.132A34.633,34.633,0,0,1,35.836,70.475Zm0-66.468a31.835,31.835,0,1,0,22.522,9.313A31.835,31.835,0,0,0,35.836,4.006Z" transform="translate(0 0)" fill="#f1ad00"/>
      <path id="Trazado_2233" data-name="Trazado 2233" d="M33.577,60.3a26.72,26.72,0,1,1,18.9-7.817,26.72,26.72,0,0,1-18.9,7.817Zm0-50.643a23.922,23.922,0,1,0,16.924,7,23.922,23.922,0,0,0-16.924-7Z" transform="translate(2.259 2.261)" fill="#f1ad00"/>
      <path id="Trazado_2234" data-name="Trazado 2234" d="M46.478,54.6a1.4,1.4,0,0,1-.989-.41l-6.028-6.028,1.979-1.979,5.039,5.039,4.738-4.738L46.179,41.44l1.979-1.979,6.028,6.028a1.4,1.4,0,0,1,0,1.979l-6.719,6.719A1.4,1.4,0,0,1,46.478,54.6Z" transform="translate(15.252 15.258)" fill="#f1ad00"/>
      <path id="Trazado_2235" data-name="Trazado 2235" d="M73.446,84.344a10.865,10.865,0,0,1-7.7-3.187L41.485,56.9a1.4,1.4,0,0,1,0-1.979L54.923,41.482a1.4,1.4,0,0,1,1.979,0L81.155,65.748a10.895,10.895,0,0,1-7.709,18.6ZM44.454,55.91,67.719,79.177A8.1,8.1,0,1,0,79.176,67.721L55.909,44.455Z" transform="translate(15.876 15.88)" fill="#f1ad00"/>
    </g>
  </g>
</svg>
