<svg xmlns="http://www.w3.org/2000/svg" width="84.907" height="51.328" viewBox="0 0 84.907 51.328">
  <g id="pintura-digital" transform="translate(-10.108 -37.263)">
    <path id="Unión_1" data-name="Unión 1" d="M-948.672-2168.917a1.459,1.459,0,0,1-.3-1.213l2.061-10.3a1.453,1.453,0,0,1,.4-.744l34-34a2.985,2.985,0,0,1,4.123,0l6.181,6.181a2.915,2.915,0,0,1,0,4.121l-34,34a1.459,1.459,0,0,1-.744.4l-10.3,2.063a1.532,1.532,0,0,1-.285.027A1.457,1.457,0,0,1-948.672-2168.917Zm4.531-10.507-1.545,7.723,7.723-1.546,26.473-26.464-6.182-6.181Zm34.711-22.347,5.163-5.161-6.184-6.181-5.16,5.16Z" transform="translate(995.663 2253.947)" fill="#f1ad00" stroke="#000" stroke-width="1"/>
    <path id="Trazado_2222" data-name="Trazado 2222" d="M30.494,70.169a7.377,7.377,0,0,1-.973-.063,5.276,5.276,0,0,1-4.469-3.472,7.532,7.532,0,0,1-.1-3.114c.115-1.032.165-1.684-.122-2.066-.364-.484-1.384-.583-2.371-.678l-.463-.047a14.971,14.971,0,0,1-5.95-1.966,2.894,2.894,0,0,1-1.566-3.523c.146-.705.328-1.406.507-2.106.256-1,.5-1.942.646-2.9A7.163,7.163,0,0,0,15.22,46a3.13,3.13,0,0,0-2.742-1.883,1.922,1.922,0,0,0-1.339.745,1.285,1.285,0,0,0-.3,1l-2.857.574a4.167,4.167,0,0,1,.857-3.363,4.809,4.809,0,0,1,3.5-1.864,6.015,6.015,0,0,1,5.5,3.509,9.961,9.961,0,0,1,.673,5.974,31.842,31.842,0,0,1-.7,3.179c-.169.657-.338,1.311-.478,1.979-.023.109-.038.2-.047.259a2.119,2.119,0,0,0,.238.146A12.062,12.062,0,0,0,22.3,57.831l.437.044A5.741,5.741,0,0,1,27.153,59.7a5.47,5.47,0,0,1,.691,4.144,5.307,5.307,0,0,0,0,1.937,2.452,2.452,0,0,0,2.069,1.437,8.452,8.452,0,0,0,3.6-.57,44.451,44.451,0,0,0,5.974-2.4L40.77,66.87a47.2,47.2,0,0,1-6.363,2.562,12.877,12.877,0,0,1-3.912.737Z" transform="translate(2.703 17.922)" fill="#f1ad00" stroke="#000" stroke-width="1"/>
  </g>
</svg>
