<svg xmlns="http://www.w3.org/2000/svg" width="67.366" height="69.838" viewBox="0 0 67.366 69.838">
  <g id="Icons" transform="translate(-3.317 -2.17)">
    <path id="Trazado_2175" data-name="Trazado 2175" d="M16.083,49.773A12.766,12.766,0,1,1,28.849,37.007,12.766,12.766,0,0,1,16.083,49.773Zm0-23.531A10.766,10.766,0,1,0,26.849,37.008,10.766,10.766,0,0,0,16.083,26.242Z" fill="#f1ad00"/>
    <path id="Trazado_2176" data-name="Trazado 2176" d="M57.92,27.54a12.489,12.489,0,0,1-5.139-1.087,12.719,12.719,0,0,1-5.518-4.663h-.007l-.3-.483a12.443,12.443,0,0,1-1.414-3.392,13.128,13.128,0,0,1-.39-3.145A12.7,12.7,0,0,1,55.859,2.183l.161-.013V3.2l.156.956A10.712,10.712,0,0,0,47.15,14.77a11.115,11.115,0,0,0,.33,2.66,10.521,10.521,0,0,0,.99,2.5l.212.348A10.755,10.755,0,0,0,60.947,25.1,10.821,10.821,0,0,0,68.68,14.77a10.612,10.612,0,0,0-.082-1.324l1.984-.253a12.551,12.551,0,0,1,.1,1.577,12.831,12.831,0,0,1-9.169,12.25,12.675,12.675,0,0,1-3.593.52Z" fill="#f1ad00"/>
    <path id="Trazado_2177" data-name="Trazado 2177" d="M65.229,6.893a10.91,10.91,0,0,0-2.152-1.567l.966-1.751a12.916,12.916,0,0,1,2.548,1.853Z" fill="#f1ad00"/>
    <path id="Trazado_2178" data-name="Trazado 2178" d="M57.917,72.008A12.766,12.766,0,1,1,70.683,59.242,12.766,12.766,0,0,1,57.917,72.008Zm0-23.531A10.766,10.766,0,1,0,68.683,59.243,10.766,10.766,0,0,0,57.917,48.477Z" fill="#f1ad00"/>
    <path id="Trazado_2179" data-name="Trazado 2179" d="M25.242,25.2H49.114v2H25.242Z" transform="matrix(0.891, -0.454, 0.454, 0.891, -7.842, 19.718)" fill="#f1ad00"/>
    <path id="Trazado_2180" data-name="Trazado 2180" d="M36.178,35.871h2V59.738h-2Z" transform="translate(-22.286 59.274) rotate(-63.05)" fill="#f1ad00"/>
  </g>
</svg>
