<svg xmlns="http://www.w3.org/2000/svg" width="41" height="70" viewBox="0 0 41 70">
  <g id="telefono-movil" transform="translate(-16 -2)">
    <path id="Trazado_2305" data-name="Trazado 2305" d="M56,36.48a1,1,0,0,1-1-1V32.51a1,1,0,1,1,2,0v2.97A1,1,0,0,1,56,36.48Z" fill="#f1ad00"/>
    <path id="Trazado_2306" data-name="Trazado 2306" d="M52,72H21a5.006,5.006,0,0,1-5-5V7a5.006,5.006,0,0,1,5-5H52a5.006,5.006,0,0,1,5,5V25.51a1,1,0,0,1-2,0V7a3,3,0,0,0-3-3H21a3,3,0,0,0-3,3V67a3,3,0,0,0,3,3H52a3,3,0,0,0,3-3V52.39a1,1,0,0,1,2,0V67A5.006,5.006,0,0,1,52,72Z" fill="#f1ad00"/>
    <path id="Trazado_2307" data-name="Trazado 2307" d="M56,46.39a1,1,0,0,1-1-1V42.48a1,1,0,0,1,2,0v2.91A1,1,0,0,1,56,46.39Z" fill="#f1ad00"/>
    <path id="Trazado_2308" data-name="Trazado 2308" d="M56,36.48a1,1,0,0,1-1-1V32.51a1,1,0,1,1,2,0v2.97A1,1,0,0,1,56,36.48Z" fill="#f1ad00"/>
    <path id="Trazado_2309" data-name="Trazado 2309" d="M56,58.69H17a1,1,0,0,1-1-1V12.25a1,1,0,0,1,1-1H56a1,1,0,0,1,1,1V25.51a1,1,0,0,1-2,0V13.25H18V56.69H55v-4.3a1,1,0,0,1,2,0v5.3A1,1,0,0,1,56,58.69Z" fill="#f1ad00"/>
    <path id="Trazado_2310" data-name="Trazado 2310" d="M56,46.39a1,1,0,0,1-1-1V42.48a1,1,0,0,1,2,0v2.91A1,1,0,0,1,56,46.39Z" fill="#f1ad00"/>
    <path id="Trazado_2311" data-name="Trazado 2311" d="M41.5,8.625h-10a1,1,0,0,1,0-2h10a1,1,0,0,1,0,2Z" fill="#f1ad00"/>
    <path id="Trazado_2312" data-name="Trazado 2312" d="M39.312,67.672H33.688a3.391,3.391,0,1,1,0-6.782h5.624a3.391,3.391,0,1,1,0,6.781Zm-5.624-4.781a1.391,1.391,0,1,0,0,2.781h5.624a1.391,1.391,0,1,0,0-2.781Z" fill="#f1ad00"/>
  </g>
</svg>
