<svg xmlns="http://www.w3.org/2000/svg" width="70" height="70" viewBox="0 0 70 70">
  <g id="Icons" transform="translate(-2 -2)">
    <path id="Trazado_2120" data-name="Trazado 2120" d="M40.27,70h2.97v2H40.27Z" fill="#f1ad00"/>
    <path id="Trazado_2121" data-name="Trazado 2121" d="M69,72H50.24V70H69a1,1,0,0,0,1-1V5a1,1,0,0,0-1-1H5A1,1,0,0,0,4,5V69a1,1,0,0,0,1,1H23.37v2H5a3,3,0,0,1-3-3V5A3,3,0,0,1,5,2H69a3,3,0,0,1,3,3V69A3,3,0,0,1,69,72Z" fill="#f1ad00"/>
    <path id="Trazado_2122" data-name="Trazado 2122" d="M30.37,70h2.9v2h-2.9Z" fill="#f1ad00"/>
    <path id="Trazado_2123" data-name="Trazado 2123" d="M3,17.667H71v2H3Z" fill="#f1ad00"/>
    <path id="Trazado_2124" data-name="Trazado 2124" d="M62.706,14.211a3.378,3.378,0,1,1,3.377-3.378,3.378,3.378,0,0,1-3.377,3.378Zm0-4.755a1.378,1.378,0,1,0,1.377,1.377,1.378,1.378,0,0,0-1.377-1.377Z" fill="#f1ad00"/>
    <path id="Trazado_2125" data-name="Trazado 2125" d="M52.229,14.211a3.378,3.378,0,1,1,3.377-3.378,3.378,3.378,0,0,1-3.377,3.378Zm0-4.755a1.378,1.378,0,1,0,1.377,1.377,1.378,1.378,0,0,0-1.377-1.377Z" fill="#f1ad00"/>
    <path id="Trazado_2126" data-name="Trazado 2126" d="M41.752,14.211a3.378,3.378,0,1,1,3.378-3.378,3.378,3.378,0,0,1-3.378,3.378Zm0-4.755a1.378,1.378,0,1,0,1.378,1.377,1.378,1.378,0,0,0-1.378-1.377Z" fill="#f1ad00"/>
    <path id="Trazado_2127" data-name="Trazado 2127" d="M37,62.333a17.5,17.5,0,1,1,17.5-17.5A17.5,17.5,0,0,1,37,62.333Zm0-33a15.5,15.5,0,1,0,15.5,15.5A15.5,15.5,0,0,0,37,29.333Z" fill="#f1ad00"/>
    <path id="Trazado_2128" data-name="Trazado 2128" d="M49.6,55A15.472,15.472,0,0,0,24.4,55l-1.63-1.16a17.473,17.473,0,0,1,28.47,0Z" fill="#f1ad00"/>
    <path id="Trazado_2129" data-name="Trazado 2129" d="M37,48.5a6.627,6.627,0,1,1,6.627-6.627A6.627,6.627,0,0,1,37,48.5Zm0-11.25a4.627,4.627,0,1,0,4.627,4.627A4.627,4.627,0,0,0,37,37.25Z" fill="#f1ad00"/>
  </g>
</svg>
