<svg xmlns="http://www.w3.org/2000/svg" width="148.216" height="57.084" viewBox="0 0 148.216 57.084"><g transform="translate(-868.986 -3986)"><text transform="translate(943 4006)" fill="#fff" font-size="19" font-family="Heebo-Regular, Heebo"><tspan x="-56.026" y="0">Diseñado por</tspan></text><g transform="translate(868.986 4014.115)"><path d="M254.663,544.771h-9.551c.1,1.185,1.219,2.133,3.623,2.133a12.3,12.3,0,0,0,4.98-1.05l.542,4.607a18.214,18.214,0,0,1-6.5,1.186c-5.656,0-8.874-2.643-8.874-8.6,0-5.216,2.947-9.078,8.4-9.078,5.216,0,7.588,3.49,7.588,8.163A17.99,17.99,0,0,1,254.663,544.771Zm-7.519-6.334a2.169,2.169,0,0,0-2.066,2.337h3.794C248.939,539.148,248.227,538.437,247.144,538.437Z" transform="translate(-226.22 -523.399)" fill="#fff"/><path d="M272.284,538.756l-3.929,12.464h-8.13l-3.962-12.464a8.656,8.656,0,0,1-1.355-.2v-4.166h8.671v4.166c-.372.068-.643.1-.949.136l.44,1.253a42.961,42.961,0,0,1,1.355,4.912h.068c.338-1.728.779-3.455,1.219-4.912l.372-1.253c-.305-.033-.576-.068-.949-.136v-4.166h8.5v4.166A8.657,8.657,0,0,1,272.284,538.756Z" transform="translate(-225.487 -523.38)" fill="#fff"/><path d="M289.131,544.771H279.58c.1,1.185,1.219,2.133,3.625,2.133a12.3,12.3,0,0,0,4.979-1.05l.543,4.607a18.214,18.214,0,0,1-6.5,1.186c-5.656,0-8.874-2.643-8.874-8.6,0-5.216,2.946-9.078,8.4-9.078,5.216,0,7.588,3.49,7.588,8.163A17.982,17.982,0,0,1,289.131,544.771Zm-7.519-6.334a2.169,2.169,0,0,0-2.066,2.337h3.793C283.407,539.148,282.7,538.437,281.613,538.437Z" transform="translate(-224.643 -523.399)" fill="#fff"/><path d="M298.557,536.64h.034A6.3,6.3,0,0,1,303.978,534c3.725,0,4.979,2.439,4.979,5.318v11.923h-6.165V540.6c0-.847-.237-1.389-.948-1.389-1.355,0-2.642,1.964-2.642,3.827v8.2h-6.165V539.045c-.814-.136-1.965-.271-2.947-.339v-4.031a61.46,61.46,0,0,1,8.637-.3A14.844,14.844,0,0,1,298.557,536.64Z" transform="translate(-223.878 -523.397)" fill="#fff"/><path d="M319.57,551.243a12.069,12.069,0,0,1,.135-2.133h-.033a5.351,5.351,0,0,1-4.877,2.54c-3.387,0-5.013-2.066-5.013-4.81,0-4.572,4.336-6.164,9.18-6.266v-.61c0-1.015-.508-1.389-2.3-1.389a4.916,4.916,0,0,0-1.355.169,12.384,12.384,0,0,1-.236,1.423H311.1v-5.386a24.209,24.209,0,0,1,6-.88c6.334,0,8.1,2.133,8.1,6.266v11.076C322.875,551.209,322.293,551.209,319.57,551.243Zm-.61-6.91c-1.829,0-3.387.136-3.387,1.661a1.1,1.1,0,0,0,1.253,1.083,2.16,2.16,0,0,0,2.134-2.2Z" transform="translate(-222.977 -523.402)" fill="#fff"/><path d="M339.482,540.6c0-.847-.237-1.389-.948-1.389-1.355,0-2.643,1.964-2.643,3.827v3.726c.678.067,1.458.169,2.134.3v4.166H326.779v-4.065a24.616,24.616,0,0,1,2.948-.406v-7.723c-.814-.136-1.965-.271-2.948-.339v-4.031a61.481,61.481,0,0,1,8.638-.3,15.282,15.282,0,0,1-.169,2.269h.033A6.307,6.307,0,0,1,340.667,534c3.727,0,4.98,2.439,4.98,5.318v7.452a17.51,17.51,0,0,1,2.608.406v4.065h-8.773Z" transform="translate(-222.199 -523.397)" fill="#fff"/><ellipse cx="4.312" cy="4.312" rx="4.312" ry="4.312" transform="translate(139.593 20.347)" fill="#fff"/><path d="M235.886,547.231V526.942c-1.409-1.323-4.937-.617-9.112-3.081v6.352c1.148.671,3.937,1.019,6.13,1.193h-.1l-3.085,1.078v14.747a24.553,24.553,0,0,0-2.947.406V551.7h11.72v-4.065A17.5,17.5,0,0,0,235.886,547.231Z" transform="translate(-226.774 -523.861)" fill="#fff"/><path d="M359.025,538.91v-4.743h-3.183V529.53l-6.165,1.66v2.978h-2.1v4.743h2.134v7.349c0,4.37,1.321,5.589,5.419,5.589a16.627,16.627,0,0,0,3.9-.508V546.5a7.3,7.3,0,0,1-1.728.237c-1.017,0-1.423-.475-1.423-1.728v-6.1Z" transform="translate(-221.248 -523.602)" fill="#fff"/></g></g></svg>