<svg xmlns="http://www.w3.org/2000/svg" width="331" height="116.054">
  <g data-name="Grupo 862">
    <g data-name="Grupo 860">
      <path data-name="Trazado 2238"
        d="M318.37 64.403a27.863 27.863 0 01.3-4.865h-.071c-1.826 3.573-6.16 5.7-10.951 5.7-7.6 0-11.254-4.639-11.254-10.8 0-10.267 9.734-14.45 20.607-14.45v-.836c0-2.129-1.6-2.966-6.007-2.966a28.372 28.372 0 00-10.8 2.509l-1.139-11.25a54.846 54.846 0 0113.915-1.977c14.068 0 18.023 4.713 18.023 13.991v14.448l.006 7.052-.043 2.758c-6.311.686-6.427.915-12.586.686zM317 48.588c-6.083 0-7.6 1.443-7.6 3.8 0 1.369.989 2.433 2.814 2.433a4.85 4.85 0 004.79-4.942z"
        fill="#fff" />
      <path data-name="Trazado 2239"
        d="M170.194 64.403a27.866 27.866 0 01.3-4.865h-.073c-1.825 3.573-6.159 5.7-10.95 5.7-7.6 0-11.254-4.639-11.254-10.8 0-10.267 9.734-14.45 20.607-14.45v-.836c0-2.129-1.6-2.966-6.007-2.966a28.368 28.368 0 00-10.8 2.509l-1.138-11.25a54.847 54.847 0 0113.915-1.977c14.068 0 18.023 4.713 18.023 13.991v14.448l.006 7.052-.043 2.758c-6.311.686-6.427.915-12.586.686zm-1.37-15.815c-6.083 0-7.6 1.443-7.6 3.8 0 1.369.989 2.433 2.814 2.433a4.85 4.85 0 004.79-4.942z"
        fill="#fff" />
      <path data-name="Trazado 2240"
        d="M80.111 36.354l-8.755 27.773H53.242l-8.83-27.775a19.68 19.68 0 01-3.02-.452v-9.285h19.321V35.9c-.83.15-1.433.225-2.113.3l.982 2.792a95.97 95.97 0 013.017 10.944h.152c.755-3.849 1.736-7.7 2.717-10.944l.83-2.792a29.114 29.114 0 01-2.114-.3v-9.285h18.945V35.9a19.679 19.679 0 01-3.018.454z"
        fill="#fff" />
      <path data-name="Trazado 2241"
        d="M119.888 49.713H98.601c.227 2.642 2.719 4.756 8.078 4.756a27.4 27.4 0 0011.094-2.341l1.207 10.265a40.58 40.58 0 01-14.49 2.642c-12.6 0-19.774-5.886-19.774-19.171 0-11.623 6.566-20.226 18.716-20.226 11.624 0 16.907 7.773 16.907 18.188a40.385 40.385 0 01-.451 5.887zm-16.756-14.114c-2.641 0-4.453 2.113-4.6 5.208h8.452c.147-3.623-1.439-5.208-3.853-5.208z"
        fill="#fff" />
      <path data-name="Trazado 2242"
        d="M126.677 82.167a33.957 33.957 0 01-6.039-.605l.68-11.546a15.078 15.078 0 004.6.678c2.792 0 4.376-1.433 4.376-4.15V36.958c-1.81-.3-4.376-.6-6.566-.755v-8.981a146.394 146.394 0 0120.3-.68V64.96c.007 10.188-4.824 17.207-17.351 17.207zm10.416-58.417a8.09 8.09 0 01-8.228-7.924 8.09 8.09 0 018.228-7.926 8.089 8.089 0 018.226 7.926 8.089 8.089 0 01-8.226 7.923z"
        fill="#fff" />
      <path data-name="Trazado 2243"
        d="M204.641 22.16a60.787 60.787 0 01-.529 7.773h.075c1.662-2.49 5.133-4.227 9.736-4.227 9.133 0 13.737 6.944 13.737 17.51 0 11.925-7.17 21.888-21.283 21.888a54.369 54.369 0 01-15.472-2.114V19.368a75.74 75.74 0 00-6.567-.755V9.632a146.047 146.047 0 0120.3-.68zm4.831 15.019c-2.492 0-4.831 2.868-4.831 8.679v7.926a10.091 10.091 0 002.642.3c3.169 0 5.886-2.188 5.886-9.433 0-5.429-1.207-7.467-3.697-7.467z"
        fill="#fff" />
      <path data-name="Trazado 2244"
        d="M266.529 49.713h-21.285c.227 2.642 2.718 4.756 8.077 4.756a27.4 27.4 0 0011.1-2.341l1.207 10.265a40.59 40.59 0 01-14.492 2.642c-12.6 0-19.774-5.886-19.774-19.171 0-11.623 6.566-20.226 18.716-20.226 11.625 0 16.907 7.773 16.907 18.188a40.237 40.237 0 01-.456 5.887zm-16.755-14.114c-2.642 0-4.454 2.113-4.6 5.208h8.452c.147-3.623-1.438-5.208-3.852-5.208z"
        fill="#fff" />
      <path data-name="Trazado 2245"
        d="M273.321 82.167a33.957 33.957 0 01-6.039-.605l.678-11.546a15.09 15.09 0 004.606.678c2.792 0 4.376-1.433 4.376-4.15V36.958c-1.811-.3-4.376-.6-6.566-.755v-8.981a146.373 146.373 0 0120.3-.68V64.96c.001 10.188-4.829 17.207-17.355 17.207z"
        fill="#fff" />
      <path data-name="Trazado 2246"
        d="M283.735 23.749a8.09 8.09 0 01-8.228-7.924 8.09 8.09 0 018.228-7.926 8.09 8.09 0 018.226 7.926 8.089 8.089 0 01-8.226 7.924z"
        fill="#fff" />
      <path data-name="Trazado 2247"
        d="M151.169 12.569c-.538-5.112-4.474-10.077-12.028-9.64-3.629.209-10.367 3.06-12.662 7.05a9.477 9.477 0 00-1.008 2.734 8.61 8.61 0 00-.492 7.658c2.555 5.547 8.728 6.019 13.654 4.619 5.866-1.672 11.571-6.248 10.988-11.013a2.973 2.973 0 00-2.194-2.345 5.451 5.451 0 00-1.256-.257 4.885 4.885 0 00-.681-3.627c-.647-.949-2.026-2.1-4.92-2.2-5.151-.16-9.539 1.223-12.521 3.9 2.449-2.928 7.744-5.345 11.147-5.541 6.9-.393 10.508 4.117 11 8.766.606 5.765-3.309 12.295-11.965 13.622-4.79.736-9.477-.757-12.212-3.9a8.737 8.737 0 01-2.071-8.248c1.425-5.687 7.836-11.2 13.211-13.237l-.348-.915c-5.614 2.132-12.314 7.922-13.814 13.919a9.664 9.664 0 002.284 9.129 13.907 13.907 0 0010.545 4.417 16.844 16.844 0 002.553-.2c9.261-1.417 13.445-8.464 12.79-14.691zm-2.577 1.252a1.749 1.749 0 01.057.277c.52 4.186-4.934 8.423-10.285 9.949-2.2.628-9.6 2.186-12.5-4.088a6.792 6.792 0 01-.532-3.573 4.476 4.476 0 001.489 2.941 8.424 8.424 0 001.858 1.07 2.129 2.129 0 00.168.279c1.658 2.324 9.249 2.108 12.549.665a14.813 14.813 0 007.196-7.519zm-2.677-1.495a5.937 5.937 0 011.215.237 3.119 3.119 0 01.784.365 13.968 13.968 0 01-6.906 7.518 17.926 17.926 0 01-9.717.586 12.483 12.483 0 004.648-.537c4.426-1.324 8.799-4.907 9.976-8.168zm-16.129 7.1a1.8 1.8 0 01.64-1.649c2.652-2.886 9.6-5.239 14.146-5.258-1.23 2.921-4.885 5.827-8.914 7.032a9.321 9.321 0 01-5.873-.124zm10.753-12.899c1.965.067 3.4.678 4.142 1.77a3.932 3.932 0 01.506 3.014c-4.844-.118-12.585 2.651-15.482 5.8a4.188 4.188 0 00-1.192 2.119 7.594 7.594 0 01-1.1-.689c-1.19-.9-1.445-3.3-1.01-5.5q.2-.373.444-.733c2.583-3.881 7.568-5.991 13.692-5.781z"
        fill="#ebb235" />
      <path data-name="Trazado 2248"
        d="M20.462 25.712C9.381 25.712.686 33.093 0 44.959h14.2c0-5.284 2.717-7.473 5.434-7.473 3.772 0 5.131 2.492 5.131 7.85 0 4.613-1.841 7.673-5.293 7.758l.01.016-.754 11.917c11.25-.071 20.3-8.05 20.3-20.521.001-11.926-6.263-18.794-18.566-18.794z"
        fill="#fff" />
    </g>
    <g data-name="Grupo 861" fill="#fff">
      <path data-name="Trazado 2249"
        d="M45.057 116.004c-5.626 0-7.691-3.634-7.691-8.115 0-5.228 2.638-9.037 8.289-9.037a16.659 16.659 0 013.71.474l-.3 2.489a12.291 12.291 0 00-3.634-.572c-3.511 0-5.1 2.689-5.1 6.2 0 3.909 1.667 6.124 5.326 6.124a9.073 9.073 0 003.535-.772l.324 2.415a12.485 12.485 0 01-4.459.794z" />
      <path data-name="Trazado 2250"
        d="M65.817 115.805l-5.229-7.269h-.125v7.269h-2.714v-16.8c1.22-.074 2.615-.1 4.506-.1 3.485 0 5.875 1.22 5.875 4.556 0 2.688-2.016 4.405-4.754 4.7.473.6 1 1.244 1.418 1.792l4.431 5.85zm-3.934-14.687c-.523 0-1.021.024-1.419.05v5.327c.249.024.721.05 1.319.05 2.191 0 3.51-1.12 3.51-2.788-.001-1.843-1.144-2.639-3.41-2.639z" />
      <path data-name="Trazado 2251"
        d="M76.865 115.805v-16.8h8.863v2.266h-6.15v4.78h5.85v2.214h-5.852v5.229h6.15v2.314z" />
      <path data-name="Trazado 2252"
        d="M104.032 115.805l-1.294-3.709h-6.8l-1.294 3.709h-2.738l6.024-16.8h3.012l6.1 16.8zm-3.93-11.153a18.018 18.018 0 01-.746-2.589h-.054a19.729 19.729 0 01-.772 2.663l-1.892 5.2h5.377z" />
      <path data-name="Trazado 2253" d="M118.384 101.295v14.513h-2.715v-14.513h-4.607v-2.29h11.95v2.29z" />
      <path data-name="Trazado 2254" d="M130.106 115.805v-16.8h2.713v16.8z" />
      <path data-name="Trazado 2255"
        d="M149 115.805h-3.087l-5.975-16.8h2.987l3.534 10.356c.349.97.748 2.166 1.07 3.41h.026a35.25 35.25 0 011.1-3.585l3.61-10.182h2.788z" />
      <path data-name="Trazado 2256"
        d="M162.164 115.805v-16.8h8.863v2.266h-6.149v4.78h5.85v2.214h-5.85v5.229h6.149v2.314z" />
      <path data-name="Trazado 2257"
        d="M194.4 115.904c-1.719 0-3.137-.074-4.457-.1V99.025c1.32-.025 3.262-.1 5.2-.1 5.3 0 8.563 2.415 8.563 8.24.001 5.777-3.833 8.739-9.306 8.739zm.547-14.737c-.822 0-1.692.025-2.289.074v12.224a16.925 16.925 0 002.016.124c3.609 0 6.149-1.918 6.149-6.224-.003-3.983-1.772-6.198-5.879-6.198z" />
      <path data-name="Trazado 2258"
        d="M211.669 115.805v-16.8h8.864v2.266h-6.149v4.78h5.85v2.214h-5.85v5.229h6.149v2.314z" />
      <path data-name="Trazado 2259"
        d="M232.005 116.054a14.049 14.049 0 01-3.386-.4l.15-2.564a10.749 10.749 0 003.485.622c1.843 0 3.336-.772 3.336-2.589 0-3.536-7.343-2.042-7.343-7.469 0-2.888 2.265-4.9 6.174-4.9a18.149 18.149 0 013.036.3l-.149 2.414a10.611 10.611 0 00-3.038-.474c-2.09 0-3.161.971-3.161 2.366 0 3.361 7.343 2.116 7.343 7.369.001 3.084-2.439 5.325-6.447 5.325z" />
      <path data-name="Trazado 2260" d="M246.541 115.805v-16.8h2.714v16.8z" />
      <path data-name="Trazado 2261"
        d="M270.686 102.014a12.369 12.369 0 00-4.481-.872c-3.386 0-6.1 2.19-6.1 6.349 0 3.882 2.215 6.149 5.826 6.149a8.289 8.289 0 002.589-.4v-6.1h2.714v7.892a16.125 16.125 0 01-5.627 1.021c-5.2 0-8.415-3.112-8.415-8.29 0-5.2 3.486-8.988 9.236-8.988a15.3 15.3 0 014.679.723z" />
      <path data-name="Trazado 2262"
        d="M290.126 115.805l-5.75-9.559a35.073 35.073 0 01-1.867-3.534c.1 1.643.15 5.054.15 7.442v5.651h-2.639v-16.8h3.559l5.552 9.162c.746 1.244 1.419 2.589 2.041 3.809-.1-1.917-.173-5.528-.173-7.991v-4.979h2.632v16.8z" />
    </g>
  </g>
</svg>